# xmcd
#
# Track frame offsets:
#	150
#	17230
#	34582
#	54605
#	72262
#	87767
#	100687
#	117337
#	137855
#	152697
#	171037
#	186285
#	203727
#	221370
#	240017
#	267730
#
# Disc length: 3814 seconds
#
# Revision: 12
# Processed by: cddbd v1.5.2PL0 Copyright (c) Steve Scherf et al.
# Submitted via: audiograbber 1.83.01
#
DISCID=d80ee410
DTITLE=Mighty Sparrow and Lord Kitchener - 16 Carnival Hits
DYEAR=1992
DGENRE=Calypso
TTITLE0=Mighty Sparrow - Jean and Dinah
TTITLE1=Mighty Sparrow - Pay As You Earn
TTITLE2=Mighty Sparrow - May May
TTITLE3=Mighty Sparrow - Royal Jail
TTITLE4=Lord Kitchener - The Road
TTITLE5=Lord Kitchener - Mama Dis Is Mas
TTITLE6=Lord Kitchener - My Pussin
TTITLE7=Mighty Sparrow - Obeah Wedding
TTITLE8=Lord Kitchener - Sixty Seven
TTITLE9=Lord Kitchener - Miss Tourist
TTITLE10=Mighty Sparrow - Sa Sa Yea
TTITLE11=Lord Kitchener - Margie
TTITLE12=Lord Kitchener - Mas In Madison Square Garden
TTITLE13=Mighty Sparrow - Drunk and Disorderly
TTITLE14=Lord Kitchener - Rain-O-Rama
TTITLE15=Lord Kitchener - Tribute To Spry Simon
EXTD=
EXTT0=
EXTT1=
EXTT2=
EXTT3=
EXTT4=
EXTT5=
EXTT6=
EXTT7=
EXTT8=
EXTT9=
EXTT10=
EXTT11=
EXTT12=
EXTT13=
EXTT14=
EXTT15=
PLAYORDER=
